name analog
datacolumns 19
datarows 23
range 0.0 0.011
endheader
time	ground_force_vx	ground_force_vy	ground_force_vz	ground_force_px	ground_force_py	ground_force_pz	l_ground_force_vx	l_ground_force_vy	l_ground_force_vz	l_ground_force_px	l_ground_force_py	l_ground_force_pz	ground_torque_x	ground_torque_y	ground_torque_z	l_ground_torque_x	l_ground_torque_y	l_ground_torque_z
0.0	-0.0	-0.0	-0.0	-2.8119089603424072	40.57878875732422	-372.2516479492188	-5.400583267211914	-42.04112243652344	-417.2998046875	-0.0	-0.0	-0.0	-0.0	-0.0	-0.0	86731.3359375	-60589.54296875	2454.8017578125
0.0005	-0.0	-0.0	-0.0	-2.5995023250579834	40.19781494140625	-369.7303466796875	-5.838509559631348	-42.04112243652344	-417.6498718261719	-0.0	-0.0	-0.0	-0.0	-0.0	-0.0	86975.375	-59806.6328125	2471.463623046875
0.001	-0.0	-0.0	-0.0	-2.472862482070923	40.29319381713867	-369.9839172363281	-5.938096523284912	-42.30609130859375	-418.2618713378906	-0.0	-0.0	-0.0	-0.0	-0.0	-0.0	86503.2734375	-59859.515625	2163.44140625
0.0015	-0.0	-0.0	-0.0	-2.893571376800537	39.61164474487305	-368.6949157714844	-6.636613845825195	-42.23992919921875	-418.3055419921875	-0.0	-0.0	-0.0	-0.0	-0.0	-0.0	86743.1875	-59480.0625	2203.771240234375
0.002	-0.0	-0.0	-0.0	-2.542536497116089	40.11505126953125	-368.997314453125	-6.730729579925537	-42.537330627441406	-418.06781005859375	-0.0	-0.0	-0.0	-0.0	-0.0	-0.0	86437.84375	-59357.8671875	2005.338623046875
0.0025	-0.0	-0.0	-0.0	-2.3387837409973145	40.00669097900391	-367.5838928222656	-6.641900539398193	-42.49409484863281	-420.6828308105469	-0.0	-0.0	-0.0	-0.0	-0.0	-0.0	86865.59375	-59010.62890625	2068.59521484375
0.003	-0.0	-0.0	-0.0	-2.4281206130981445	40.44578170776367	-365.6438598632813	-6.676291942596436	-42.68798065185547	-421.0542297363281	-0.0	-0.0	-0.0	-0.0	-0.0	-0.0	86925.34375	-58597.6640625	2062.813232421875
0.0035	-0.0	-0.0	-0.0	-2.9046080112457275	39.9500732421875	-365.6710510253906	-7.085216522216797	-42.64778137207031	-421.1226806640625	-0.0	-0.0	-0.0	-0.0	-0.0	-0.0	86548.21875	-58402.6875	2082.486572265625
0.004	-0.0	-0.0	-0.0	-2.689546823501587	40.02616500854492	-367.803955078125	-6.824848175048828	-42.65937805175781	-422.1243286132813	-0.0	-0.0	-0.0	-0.0	-0.0	-0.0	86320.34375	-58217.41796875	1973.7681884765625
0.0045000000000000005	-0.0	-0.0	-0.0	-2.5737123489379883	40.58109664916992	-364.5346984863281	-6.800919532775879	-42.67718505859375	-421.7516784667969	-0.0	-0.0	-0.0	-0.0	-0.0	-0.0	86624.765625	-57971.87890625	2003.4715576171875
0.005	-0.0	-0.0	-0.0	-3.149308443069458	40.20454406738281	-365.51458740234375	-6.984148979187012	-42.90641784667969	-422.1243286132813	-0.0	-0.0	-0.0	-0.0	-0.0	-0.0	86633.1796875	-58136.7265625	1941.961181640625
0.0055	-0.0	-0.0	-0.0	-3.3007888793945312	40.59608459472656	-364.208984375	-6.7359795570373535	-42.58308029174805	-422.7750854492188	-0.0	-0.0	-0.0	-0.0	-0.0	-0.0	86686.1875	-57805.33984375	1918.6151123046875
0.006	-0.0	-0.0	-0.0	-3.4037094116210938	40.801177978515625	-364.5088195800781	-6.919441223144531	-43.100982666015625	-424.07470703125	-0.0	-0.0	-0.0	-0.0	-0.0	-0.0	86474.3359375	-57682.859375	1933.7718505859373
0.006500000000000001	-0.0	-0.0	-0.0	-3.822224140167236	40.643463134765625	-364.1011657714844	-6.919441223144531	-43.195457458496094	-422.8712768554688	-0.0	-0.0	-0.0	-0.0	-0.0	-0.0	86818.1171875	-57350.265625	1933.669677734375
0.007	-0.0	-0.0	-0.0	-3.396955728530884	40.643463134765625	-364.10101318359375	-7.4517059326171875	-43.54878616333008	-425.5913696289063	-0.0	-0.0	-0.0	-0.0	-0.0	-0.0	87066.7734375	-57699.53515625	1854.553466796875
0.0075	-0.0	-0.0	-0.0	-3.7398078441619873	40.45817565917969	-362.0929870605469	-7.895259857177734	-43.45426940917969	-426.2397766113281	-0.0	-0.0	-0.0	-0.0	-0.0	-0.0	87198.5625	-57623.8203125	1737.737548828125
0.008	-0.0	-0.0	-0.0	-3.5472004413604736	40.24728393554688	-363.0129699707031	-7.971296310424805	-43.940032958984375	-429.0325317382813	-0.0	-0.0	-0.0	-0.0	-0.0	-0.0	87104.7421875	-57336.4296875	1555.3641357421875
0.0085	-0.0	-0.0	-0.0	-3.225886106491089	39.98759841918945	-362.0094604492188	-8.066264152526855	-43.876712799072266	-429.6793823242188	-0.0	-0.0	-0.0	-0.0	-0.0	-0.0	87554.2734375	-57291.7109375	1640.0130615234375
0.009000000000000001	-0.0	-0.0	-0.0	-2.987224817276001	40.710975646972656	-362.03802490234375	-8.167868614196777	-43.889434814453125	-430.427490234375	-0.0	-0.0	-0.0	-0.0	-0.0	-0.0	87621.4375	-56969.375	1468.41064453125
0.0095	-0.0	-0.0	-0.0	-3.05497407913208	40.2796745300293	-360.863525390625	-8.092286109924316	-44.059513092041016	-430.8273620605469	-0.0	-0.0	-0.0	-0.0	-0.0	-0.0	87697.0625	-56948.1875	1379.44873046875
0.01	-0.0	-0.0	-0.0	-2.7949368953704834	40.20516204833984	-359.1549072265625	-8.26994800567627	-44.23599624633789	-431.9266052246094	-0.0	-0.0	-0.0	-0.0	-0.0	-0.0	87732.1015625	-56765.97265625	1431.9964599609375
0.0105	-0.0	-0.0	-0.0	-3.018373250961304	40.15350341796875	-357.47662353515625	-8.693656921386719	-44.48100662231445	-430.9840393066406	-0.0	-0.0	-0.0	-0.0	-0.0	-0.0	87903.4921875	-56578.71484375	1312.9505615234375
0.011	-0.0	-0.0	-0.0	-3.077757835388184	40.0195541381836	-357.7124328613281	-8.97318172454834	-44.73242950439453	-434.6147155761719	-0.0	-0.0	-0.0	-0.0	-0.0	-0.0	88310.9375	-56759.06640625	1323.8555908203125
